<svg xmlns="http://www.w3.org/2000/svg" viewBox="0 0 53.85 5.78">
    <title>Asset 4</title>
    <path d="M1.91,2.15a2.85,2.85,0,0,0,.5.25,4.34,4.34,0,0,1,.69.36,1.38,1.38,0,0,1,.47.51,1.68,1.68,0,0,1,.2.86c0,.13,0,.26,0,.41a1.14,1.14,0,0,1-.64.9,3,3,0,0,1-1.32.28A5.29,5.29,0,0,1,1,5.65a6,6,0,0,1-.73-.18.22.22,0,0,1-.17-.24V4.38c0-.12.06-.19.16-.19l.09,0a4,4,0,0,0,1.06.14A1.52,1.52,0,0,0,2,4.27.28.28,0,0,0,2.2,4,.3.3,0,0,0,2,3.77a2.78,2.78,0,0,0-.49-.24,6.57,6.57,0,0,1-.75-.37,1.68,1.68,0,0,1-.52-.51,1.45,1.45,0,0,1-.22-.83,2.19,2.19,0,0,1,0-.46A1.15,1.15,0,0,1,.73.51,2.74,2.74,0,0,1,2,.24,4.88,4.88,0,0,1,3.52.48a.23.23,0,0,1,.17.25v.61c0,.1-.08.15-.25.15l-.23,0a3.18,3.18,0,0,0-.62-.06,1.29,1.29,0,0,0-.6.11.36.36,0,0,0-.07.63Z"
          style="fill:#182d34;stroke:#fff;stroke-miterlimit:10;stroke-width:0.10000000149011612px"/>
    <path d="M4.74,2.58a2.19,2.19,0,0,1,1-.74h.1a.13.13,0,0,1,.11,0A.26.26,0,0,1,6,2V3.7a1.11,1.11,0,0,0,.19.67.53.53,0,0,0,.45.27.55.55,0,0,0,.45-.27,1.23,1.23,0,0,0,.19-.67,1.25,1.25,0,0,0-.17-.64.53.53,0,0,0-.4-.31.47.47,0,0,1-.17-.06.17.17,0,0,1,0-.13V1.89c0-.14.07-.21.22-.21A2.35,2.35,0,0,1,7.76,2a2,2,0,0,1,.78.73,1.79,1.79,0,0,1,.3,1,1.84,1.84,0,0,1-.3,1,2.12,2.12,0,0,1-.81.73,2.35,2.35,0,0,1-1.12.27,2.39,2.39,0,0,1-1.13-.27,2.12,2.12,0,0,1-.81-.73,1.9,1.9,0,0,1,.07-2.15Z"
          style="fill:#182d34;stroke:#fff;stroke-miterlimit:10;stroke-width:0.10000000149011612px"/>
    <path d="M12.06,2a.19.19,0,0,1,.21-.21h1.16a.19.19,0,0,1,.21.21V5.4a.19.19,0,0,1-.21.21h-1.1a.2.2,0,0,1-.23-.17l0-.18a1.85,1.85,0,0,1-.53.34,1.61,1.61,0,0,1-.59.13,1.47,1.47,0,0,1-1.09-.42A1.72,1.72,0,0,1,9.43,4V2c0-.14.07-.21.22-.21h1.06a.19.19,0,0,1,.21.21V3.83a1,1,0,0,0,.14.55.46.46,0,0,0,.37.18.68.68,0,0,0,.32-.09,1,1,0,0,0,.31-.23Z"
          style="fill:#182d34;stroke:#fff;stroke-miterlimit:10;stroke-width:0.10000000149011612px"/>
    <path d="M16.53,1.82a1.13,1.13,0,0,1,.66-.14.2.2,0,0,1,.19.23v.91c0,.14-.07.21-.22.21a1.43,1.43,0,0,0-.88.23,1,1,0,0,0-.33.88V5.4a.19.19,0,0,1-.21.21H14.58a.19.19,0,0,1-.22-.21V2a.19.19,0,0,1,.22-.21h1.1a.2.2,0,0,1,.22.2l0,.31A1.79,1.79,0,0,1,16.53,1.82Z"
          style="fill:#182d34;stroke:#fff;stroke-miterlimit:10;stroke-width:0.10000000149011612px"/>
    <path d="M18.15,2.53a1.92,1.92,0,0,1,.94-.72l.08,0a.14.14,0,0,1,.12.06.21.21,0,0,1,0,.15V3.75a.84.84,0,0,0,.2.59.62.62,0,0,0,.47.21.63.63,0,0,0,.5-.24.28.28,0,0,1,.18-.13l.1,0,.71.28a.18.18,0,0,1,.15.17.17.17,0,0,1,0,.1,1.77,1.77,0,0,1-.67.69,1.93,1.93,0,0,1-1,.28,2.24,2.24,0,0,1-1.1-.27,1.85,1.85,0,0,1-.76-.73,2,2,0,0,1-.28-1A2,2,0,0,1,18.15,2.53Zm1.72.23a.18.18,0,0,1-.05-.14V1.9c0-.15.08-.21.22-.2A2,2,0,0,1,21,2a1.52,1.52,0,0,1,.59.59.16.16,0,0,1,0,.09.18.18,0,0,1-.15.18l-.71.27-.08,0c-.06,0-.13-.05-.21-.14A.54.54,0,0,0,20,2.8.39.39,0,0,1,19.87,2.76Z"
          style="fill:#182d34;stroke:#fff;stroke-miterlimit:10;stroke-width:0.10000000149011612px"/>
    <path d="M22.29,2.68A1.88,1.88,0,0,1,23,1.94a2.35,2.35,0,0,1,1.17-.27,1.91,1.91,0,0,1,1.39.5,1.89,1.89,0,0,1,.5,1.41,2.53,2.53,0,0,1,0,.38.2.2,0,0,1-.22.21H24A.22.22,0,0,1,23.74,4a1.27,1.27,0,0,1,0-.28,1.24,1.24,0,0,1,0-.27A.21.21,0,0,1,24,3.27h.76a.56.56,0,0,0-.2-.44.78.78,0,0,0-.48-.15.69.69,0,0,0-.6.3,1.15,1.15,0,0,0-.21.69,1,1,0,0,0,.11.5.9.9,0,0,0,.5.4,2.47,2.47,0,0,0,.84.13,3.64,3.64,0,0,0,.74-.07h.08a.2.2,0,0,1,.19.15l.16.49a.51.51,0,0,1,0,.09.17.17,0,0,1-.14.17,4.81,4.81,0,0,1-1.37.21,2.79,2.79,0,0,1-1.68-.49A1.76,1.76,0,0,1,22,3.73,2.14,2.14,0,0,1,22.29,2.68Z"
          style="fill:#182d34;stroke:#fff;stroke-miterlimit:10;stroke-width:0.10000000149011612px"/>
    <path d="M26.88,5.56a.25.25,0,0,1,0-.18l.63-4.6c0-.13.08-.21.2-.22l1.24-.2a.2.2,0,0,1,.25.16l.86,3L30.45,2c0-.1.07-.14.13-.14s.11.05.13.16l.34,2.23v.09a.52.52,0,0,1,0,.17l-.28.9a.23.23,0,0,1-.24.17h-1a.21.21,0,0,1-.24-.17L28.64,3.3l-.18,2.11a.26.26,0,0,1-.07.15.2.2,0,0,1-.15.05H27A.25.25,0,0,1,26.88,5.56ZM31,.39a.21.21,0,0,1,.16-.06h1.14a.2.2,0,0,1,.22.19l.66,4.86a.25.25,0,0,1,0,.18.25.25,0,0,1-.16.05H31.81a.2.2,0,0,1-.15-.05.26.26,0,0,1-.07-.15L31.4,3.34,31,.56A.22.22,0,0,1,31,.39Z"
          style="fill:#182d34;stroke:#fff;stroke-miterlimit:10;stroke-width:0.10000000149011612px"/>
    <path d="M33.78,4.59a1.1,1.1,0,0,1,.31-.77,2.09,2.09,0,0,1,.84-.53,3.15,3.15,0,0,1,1.13-.19h.21a.74.74,0,0,0-.69-.31,2,2,0,0,0-.53.08,2,2,0,0,0-.5.21.31.31,0,0,1-.13,0A.18.18,0,0,1,34.25,3L34,2.51a.28.28,0,0,1,0-.12A.22.22,0,0,1,34,2.21a3.31,3.31,0,0,1,.83-.39,3.11,3.11,0,0,1,.89-.14,2.44,2.44,0,0,1,1,.18,1.74,1.74,0,0,1,.68.54,1.53,1.53,0,0,1,.25.86c0,.11,0,.7,0,1.78V5.4a.2.2,0,0,1-.22.21h-.84a.19.19,0,0,1-.21-.21V3.87h-.21a1,1,0,0,0-.61.15.42.42,0,0,0-.21.33.21.21,0,0,0,0,.13.2.2,0,0,0,.11.09l.14,0a.49.49,0,0,1,.17,0,.21.21,0,0,1,0,.15v.6a.24.24,0,0,1-.21.25,2.53,2.53,0,0,1-.59.08,1.54,1.54,0,0,1-.77-.19A.92.92,0,0,1,33.83,5,1.64,1.64,0,0,1,33.78,4.59Z"
          style="fill:#182d34;stroke:#fff;stroke-miterlimit:10;stroke-width:0.10000000149011612px"/>
    <path d="M40.53,1.82a1.13,1.13,0,0,1,.66-.14.21.21,0,0,1,.19.23v.91c0,.14-.08.21-.23.21a1.42,1.42,0,0,0-.87.23,1,1,0,0,0-.33.88V5.4a.19.19,0,0,1-.22.21H38.57a.19.19,0,0,1-.21-.21V2a.19.19,0,0,1,.21-.21h1.1a.19.19,0,0,1,.22.2l.06.31A1.79,1.79,0,0,1,40.53,1.82Z"
          style="fill:#182d34;stroke:#fff;stroke-miterlimit:10;stroke-width:0.10000000149011612px"/>
    <path d="M42,5.4V.46a.23.23,0,0,1,.2-.23l1-.18a.17.17,0,0,1,.16,0,.21.21,0,0,1,.08.16l.07,2.59.8-.92a.33.33,0,0,1,.27-.12h1.05c.11,0,.17,0,.17.13a.19.19,0,0,1-.06.13l-2,2.31-.24.28V5.4a.19.19,0,0,1-.21.21H42.19C42,5.61,42,5.54,42,5.4Zm2.15-.59a.24.24,0,0,1,.06-.15l.47-.55A.17.17,0,0,1,44.79,4a.19.19,0,0,1,.15.1l.83,1.23a.18.18,0,0,1,0,.13c0,.08-.06.13-.18.13H44.8a.32.32,0,0,1-.26-.13L44.17,5A.3.3,0,0,1,44.12,4.81Z"
          style="fill:#182d34;stroke:#fff;stroke-miterlimit:10;stroke-width:0.10000000149011612px"/>
    <path d="M46.39,2.68a1.85,1.85,0,0,1,.73-.74,2.42,2.42,0,0,1,1.18-.27,1.91,1.91,0,0,1,1.39.5,1.89,1.89,0,0,1,.5,1.41,2.53,2.53,0,0,1,0,.38.2.2,0,0,1-.22.21H48.08A.22.22,0,0,1,47.84,4a1.27,1.27,0,0,1,0-.28,1.24,1.24,0,0,1,0-.27.21.21,0,0,1,.24-.18h.76a.54.54,0,0,0-.21-.44.75.75,0,0,0-.47-.15.69.69,0,0,0-.6.3,1.19,1.19,0,0,0-.11,1.19,1,1,0,0,0,.51.4,2.39,2.39,0,0,0,.84.13,3.64,3.64,0,0,0,.74-.07h.08a.2.2,0,0,1,.19.15l.16.49a.34.34,0,0,1,0,.09.16.16,0,0,1-.13.17,4.81,4.81,0,0,1-1.37.21,2.79,2.79,0,0,1-1.68-.49,1.76,1.76,0,0,1-.66-1.51A2.14,2.14,0,0,1,46.39,2.68Z"
          style="fill:#182d34;stroke:#fff;stroke-miterlimit:10;stroke-width:0.10000000149011612px"/>
    <path d="M53,1.82a1.13,1.13,0,0,1,.66-.14.2.2,0,0,1,.19.23v.91c0,.14-.07.21-.22.21a1.38,1.38,0,0,0-.87.23,1,1,0,0,0-.34.88V5.4a.19.19,0,0,1-.21.21H51a.19.19,0,0,1-.21-.21V2A.19.19,0,0,1,51,1.8h1.1a.2.2,0,0,1,.22.2l0,.31A1.79,1.79,0,0,1,53,1.82Z"
          style="fill:#182d34;stroke:#fff;stroke-miterlimit:10;stroke-width:0.10000000149011612px"/>
</svg>