<svg xmlns="http://www.w3.org/2000/svg" viewBox="0 0 37.87 4"><title>SourceMarker</title><path d="M1.31,1.48a2.69,2.69,0,0,0,.35.18,3.15,3.15,0,0,1,.49.25,1,1,0,0,1,.33.36,1.13,1.13,0,0,1,.14.61,1.57,1.57,0,0,1,0,.29.77.77,0,0,1-.44.62,2,2,0,0,1-.94.2,2.71,2.71,0,0,1-.56-.05,3.19,3.19,0,0,1-.51-.12A.16.16,0,0,1,0,3.65v-.6c0-.09,0-.13.11-.13H.2A2.87,2.87,0,0,0,1,3a1.42,1.42,0,0,0,.41,0,.2.2,0,0,0,.15-.19.22.22,0,0,0-.11-.17,1.91,1.91,0,0,0-.35-.17,3.75,3.75,0,0,1-.53-.26,1,1,0,0,1-.36-.36A1,1,0,0,1,0,1.24,1.66,1.66,0,0,1,0,.92.8.8,0,0,1,.48.32,2,2,0,0,1,1.37.13,3.59,3.59,0,0,1,2.45.3c.07,0,.11.08.11.18V.91C2.56,1,2.5,1,2.38,1L2.22,1a2.12,2.12,0,0,0-.44,0A1,1,0,0,0,1.36,1a.26.26,0,0,0-.16.24A.25.25,0,0,0,1.31,1.48Z" style="fill:#182d34"/><path d="M3.31,1.78A1.45,1.45,0,0,1,4,1.26h.06a.09.09,0,0,1,.08,0,.13.13,0,0,1,0,.1V2.57A.77.77,0,0,0,4.3,3a.4.4,0,0,0,.32.2A.4.4,0,0,0,4.94,3a.81.81,0,0,0,.13-.47A.94.94,0,0,0,5,2.12a.43.43,0,0,0-.29-.22l-.12,0a.12.12,0,0,1,0-.09V1.3a.13.13,0,0,1,.15-.15,1.79,1.79,0,0,1,.76.2A1.45,1.45,0,0,1,6,1.87a1.26,1.26,0,0,1,.21.71A1.32,1.32,0,0,1,6,3.3a1.57,1.57,0,0,1-.57.51A1.62,1.62,0,0,1,4.62,4a1.62,1.62,0,0,1-.79-.19,1.69,1.69,0,0,1-.58-.51,1.33,1.33,0,0,1,.06-1.52Z" style="fill:#182d34"/><path d="M8.46,1.38a.13.13,0,0,1,.15-.15h.82a.13.13,0,0,1,.15.15V3.77a.13.13,0,0,1-.15.15H8.65a.15.15,0,0,1-.16-.13l0-.12a1.36,1.36,0,0,1-.38.24A1,1,0,0,1,7.68,4a1.06,1.06,0,0,1-.77-.29,1.25,1.25,0,0,1-.3-.93V1.38a.13.13,0,0,1,.15-.15h.75a.13.13,0,0,1,.15.15V2.66a.63.63,0,0,0,.1.39A.33.33,0,0,0,8,3.18a.49.49,0,0,0,.22-.06A.89.89,0,0,0,8.46,3Z" style="fill:#182d34"/><path d="M11.61,1.24a.88.88,0,0,1,.47-.09c.09,0,.13.06.13.16V2c0,.1-.05.15-.16.15a1,1,0,0,0-.61.16.71.71,0,0,0-.24.62v.89a.13.13,0,0,1-.15.15h-.81a.13.13,0,0,1-.15-.15V1.38a.13.13,0,0,1,.15-.15H11a.15.15,0,0,1,.16.14l0,.22A1.34,1.34,0,0,1,11.61,1.24Z" style="fill:#182d34"/><path d="M12.76,1.75a1.29,1.29,0,0,1,.66-.51h.05a.08.08,0,0,1,.08,0,.15.15,0,0,1,0,.1V2.61a.56.56,0,0,0,.14.41.46.46,0,0,0,.34.15A.46.46,0,0,0,14.41,3a.17.17,0,0,1,.13-.09l.06,0,.51.2a.12.12,0,0,1,.1.12.19.19,0,0,1,0,.07,1.23,1.23,0,0,1-.47.49A1.32,1.32,0,0,1,14,4a1.55,1.55,0,0,1-.78-.19,1.33,1.33,0,0,1-.54-.51,1.4,1.4,0,0,1-.19-.73A1.37,1.37,0,0,1,12.76,1.75ZM14,1.91a.11.11,0,0,1,0-.1V1.3c0-.1.05-.15.16-.14a1.6,1.6,0,0,1,.69.19,1.1,1.1,0,0,1,.41.42.14.14,0,0,1,0,.06.13.13,0,0,1-.1.13l-.5.19h-.06a.25.25,0,0,1-.15-.09.35.35,0,0,0-.31-.13A.17.17,0,0,1,14,1.91Z" style="fill:#182d34"/><path d="M15.67,1.85a1.37,1.37,0,0,1,.52-.52A1.75,1.75,0,0,1,17,1.14a1.32,1.32,0,0,1,1,.35,1.32,1.32,0,0,1,.36,1c0,.08,0,.17,0,.27a.14.14,0,0,1-.16.14H16.86a.16.16,0,0,1-.17-.12,1.11,1.11,0,0,1,0-.19,1.11,1.11,0,0,1,0-.19.15.15,0,0,1,.17-.13h.53A.37.37,0,0,0,17.25,2a.52.52,0,0,0-.33-.11.5.5,0,0,0-.43.21.81.81,0,0,0-.15.49.78.78,0,0,0,.08.35.66.66,0,0,0,.36.28,1.55,1.55,0,0,0,.59.1,3,3,0,0,0,.52,0H18c.06,0,.1,0,.13.11l.11.34a.18.18,0,0,1,0,.06.12.12,0,0,1-.09.12,3.37,3.37,0,0,1-1,.15A1.92,1.92,0,0,1,16,3.65a1.23,1.23,0,0,1-.47-1.06A1.53,1.53,0,0,1,15.67,1.85Z" style="fill:#182d34"/><path d="M18.91,3.88a.12.12,0,0,1,0-.12L19.33.51a.15.15,0,0,1,.14-.15l.87-.14a.13.13,0,0,1,.18.11l.61,2.09.29-1c0-.07,0-.11.09-.11s.08,0,.09.12L21.84,3s0,0,0,.06a.69.69,0,0,1,0,.13l-.2.62a.16.16,0,0,1-.17.13h-.68a.15.15,0,0,1-.16-.13l-.47-1.5L20,3.78a.16.16,0,0,1-.05.1.15.15,0,0,1-.11,0H19A.12.12,0,0,1,18.91,3.88ZM21.82.24a.13.13,0,0,1,.11,0h.8a.14.14,0,0,1,.15.14l.47,3.43a.16.16,0,0,1,0,.12.15.15,0,0,1-.12,0h-.83a.15.15,0,0,1-.11,0,.16.16,0,0,1-.05-.1l-.13-1.46-.3-2Q21.78.27,21.82.24Z" style="fill:#182d34"/><path d="M23.77,3.2A.79.79,0,0,1,24,2.65a1.53,1.53,0,0,1,.58-.37,2.36,2.36,0,0,1,.8-.13h.15A.52.52,0,0,0,25,1.94a1.64,1.64,0,0,0-.37.05,1.6,1.6,0,0,0-.35.15l-.09,0a.11.11,0,0,1-.12-.08l-.2-.35a.16.16,0,0,1,0-.08A.17.17,0,0,1,24,1.52a2.46,2.46,0,0,1,.59-.28,2.27,2.27,0,0,1,.62-.09,1.63,1.63,0,0,1,.67.13,1.06,1.06,0,0,1,.48.38,1,1,0,0,1,.17.6c0,.08,0,.5,0,1.25v.26a.14.14,0,0,1-.16.15h-.59a.13.13,0,0,1-.15-.15V2.69h-.15a.74.74,0,0,0-.43.1.31.31,0,0,0-.14.23.17.17,0,0,0,0,.1.13.13,0,0,0,.07.06l.11,0a.23.23,0,0,1,.11,0,.11.11,0,0,1,0,.1v.42a.17.17,0,0,1-.15.18,1.48,1.48,0,0,1-.41.05,1.07,1.07,0,0,1-.55-.13.68.68,0,0,1-.3-.4A1.22,1.22,0,0,1,23.77,3.2Z" style="fill:#182d34"/><path d="M28.52,1.24A.86.86,0,0,1,29,1.15a.14.14,0,0,1,.13.16V2c0,.1-.05.15-.16.15a1,1,0,0,0-.61.16.71.71,0,0,0-.24.62v.89a.13.13,0,0,1-.15.15h-.82A.13.13,0,0,1,27,3.77V1.38a.13.13,0,0,1,.15-.15h.78a.14.14,0,0,1,.15.14l0,.22A1.34,1.34,0,0,1,28.52,1.24Z" style="fill:#182d34"/><path d="M29.54,3.77V.29a.15.15,0,0,1,.14-.16L30.4,0a.16.16,0,0,1,.12,0,.13.13,0,0,1,.05.11L30.62,2l.57-.64a.2.2,0,0,1,.18-.09h.74c.09,0,.13,0,.13.09a.18.18,0,0,1,0,.09L30.79,3.05l-.17.2v.52a.13.13,0,0,1-.15.15h-.78A.13.13,0,0,1,29.54,3.77Zm1.51-.41a.15.15,0,0,1,0-.11l.33-.39a.14.14,0,0,1,.1-.06.12.12,0,0,1,.11.07l.58.86a.16.16,0,0,1,0,.09c0,.06,0,.1-.12.1h-.59a.21.21,0,0,1-.18-.1l-.26-.36A.16.16,0,0,1,31.05,3.36Z" style="fill:#182d34"/><path d="M32.65,1.85a1.37,1.37,0,0,1,.52-.52A1.75,1.75,0,0,1,34,1.14a1.32,1.32,0,0,1,1,.35,1.32,1.32,0,0,1,.36,1c0,.08,0,.17,0,.27a.14.14,0,0,1-.16.14H33.84a.16.16,0,0,1-.17-.12,1.11,1.11,0,0,1,0-.19,1.11,1.11,0,0,1,0-.19.15.15,0,0,1,.17-.13h.53A.37.37,0,0,0,34.23,2a.52.52,0,0,0-.33-.11.5.5,0,0,0-.43.21.81.81,0,0,0-.15.49.78.78,0,0,0,.08.35.66.66,0,0,0,.36.28,1.55,1.55,0,0,0,.59.1,3,3,0,0,0,.52,0h.06c.06,0,.1,0,.13.11l.11.34a.18.18,0,0,1,0,.06.12.12,0,0,1-.09.12,3.37,3.37,0,0,1-1,.15,1.92,1.92,0,0,1-1.18-.35,1.23,1.23,0,0,1-.47-1.06A1.53,1.53,0,0,1,32.65,1.85Z" style="fill:#182d34"/><path d="M37.28,1.24a.83.83,0,0,1,.46-.09c.09,0,.13.06.13.16V2a.13.13,0,0,1-.15.15,1,1,0,0,0-.62.16.71.71,0,0,0-.24.62v.89a.13.13,0,0,1-.15.15H35.9a.13.13,0,0,1-.15-.15V1.38a.13.13,0,0,1,.15-.15h.77a.15.15,0,0,1,.16.14l0,.22A1.27,1.27,0,0,1,37.28,1.24Z" style="fill:#1890FF"/></svg>
